<svg xmlns="http://www.w3.org/2000/svg" viewBox="0 0 64 64" role="img" aria-label="Dentiq Smile Studios">
  <rect width="64" height="64" rx="18" fill="#fbf8f2"/>
  <path
    d="M19.6 13.4c4.2-3.5 8.7-.6 12.4-.6s8.2-2.9 12.4.6c4.7 3.9 4 12.8 1.4 21.2-2.3 7.4-4.3 17-10.2 17-3.2 0-2.6-9.4-3.6-9.4s-.4 9.4-3.6 9.4c-5.9 0-7.9-9.6-10.2-17-2.6-8.4-3.3-17.3 1.4-21.2Z"
    fill="#fffdf9"
    stroke="#27231f"
    stroke-width="3"
    stroke-linejoin="round"
  />
  <path
    d="M22.5 25.5c2.3 4 5.4 6 9.5 6s7.2-2 9.5-6"
    fill="none"
    stroke="#b89472"
    stroke-width="3.5"
    stroke-linecap="round"
  />
</svg>
